# xmcd CD database file
#
# Track frame offsets:
#	150
#	10457
#	23779
#	34643
#	47902
#	57687
#	68904
#	80194
#	93609
#	107213
#	123790
#	135883
#	150089
#	159323
#	169312
#	183326
#	199103
#	208215
#	218637
#	232301
#
# Disc length: 3299 seconds
#
# Revision: 0
# Processed by: cddbd v1.5.2PL0 Copyright (c) Steve Scherf et al.
# Submitted via: CDex 1.77
#
DISCID=1a0ce114
DTITLE=Alexander l'Estrange - Tom Pilling - Jazz sessions  Trumpet - Play along
DYEAR=1900
DGENRE=Jazz
TTITLE0=C Jam Blues
TTITLE1=C Jam Blues - With impro
TTITLE2=Snowdrop
TTITLE3=Snowdrop - With impro
TTITLE4=Wade in the water
TTITLE5=Wade in the water - With impro
TTITLE6=Wanna Walk with me ?
TTITLE7=Wanna Walk with me ? - With impro
TTITLE8=Fly me to the moon
TTITLE9=Fly me to the moon - With impro
TTITLE10=Song for Jo
TTITLE11=Song for Jo - With impro
TTITLE12=Bradley's Bounce
TTITLE13=Bradley's Bounce - With impro
TTITLE14=It's me O Lord
TTITLE15=It's me O Lord - With impro
TTITLE16=Hafiz Zahran
TTITLE17=Hafiz Zahran - With impro
TTITLE18=Stompin' at the Savoy
TTITLE19=Stompin' at the Savoy - With impro
EXTD=
EXTT0=
EXTT1=
EXTT2=
EXTT3=
EXTT4=
EXTT5=
EXTT6=
EXTT7=
EXTT8=
EXTT9=
EXTT10=
EXTT11=
EXTT12=
EXTT13=
EXTT14=
EXTT15=
EXTT16=
EXTT17=
EXTT18=
EXTT19=
PLAYORDER=
